<svg xml:space="preserve" viewBox="0 0 25 25" xmlns="http://www.w3.org/2000/svg"><path d="M12.5 0C5.6 0 0 5.6 0 12.5S5.6 25 12.5 25 25 19.4 25 12.5 19.4 0 12.5 0zm0 23C6.7 23 2 18.3 2 12.5S6.7 2 12.5 2 23 6.7 23 12.5 18.3 23 12.5 23z" fill="#e7ae41" data-follow-fill="#e7ae41"/><path d="M18.4 11.5v4.8c-.9 1.9-2.8 2.8-5.8 2.8-4.1-.2-6.2-2.5-6.4-6.8.2-4.2 2.3-6.5 6.2-6.7 3 0 5 1.1 5.9 3.4l-2.3.9c-.6-1.4-1.8-2.1-3.6-2.1-2.3.2-3.5 1.7-3.7 4.6.1 2.9 1.4 4.5 3.9 4.7 1.7 0 2.8-.5 3.5-1.4v-2.1h-4v-2h6.3z" fill="#e7ae41" data-follow-fill="#e7ae41"/></svg>