<svg xml:space="preserve" viewBox="0 0 200 200" xmlns="http://www.w3.org/2000/svg"><path d="M100 200C44.8 200 0 155.2 0 100S44.8 0 100 0s100 44.8 100 100-44.8 100-100 100zm44.2-132.4c3-3.5 2.7-8.7-.7-11.8-3.2-2.8-7.9-2.8-11 0L100 88.2 67.6 55.8c-3-3.5-8.3-3.8-11.8-.7-3.5 3-3.8 8.3-.7 11.8.2.3.5.5.7.7L88.2 100l-32.4 32.4c-3.4 3.1-3.7 8.4-.6 11.8 3.1 3.4 8.4 3.7 11.8.6l.6-.6 32.4-32.4 32.4 32.4c3.1 3.4 8.3 3.7 11.8.6 3.4-3.1 3.7-8.3.6-11.8-.2-.2-.4-.5-.7-.7L111.8 100l32.4-32.4z" opacity=".6"/></svg>