<svg xml:space="preserve" viewBox="0 0 17 17" xmlns="http://www.w3.org/2000/svg"><path d="M8.5 0c1.2 0 2.3.2 3.3.7s1.9 1.1 2.7 1.8c.8.8 1.4 1.7 1.8 2.7.4 1 .7 2.1.7 3.3s-.2 2.3-.7 3.3c-.4 1-1.1 1.9-1.8 2.7-.8.8-1.7 1.4-2.7 1.8-1 .4-2.1.7-3.3.7-1.2 0-2.3-.2-3.3-.7-1-.4-1.9-1.1-2.7-1.8-.8-.8-1.4-1.7-1.8-2.7S0 9.7 0 8.5c0-1.2.2-2.3.7-3.3s1.1-1.9 1.8-2.7S4.2 1.1 5.2.7 7.3 0 8.5 0zm0 14.3c.3 0 .6-.1.8-.3s.3-.5.3-.8c0-.3-.1-.6-.3-.8s-.5-.4-.8-.4c-.3 0-.6.1-.8.3-.2.2-.3.5-.3.8 0 .3.1.6.3.8.2.3.5.4.8.4zm1-4.7c0-.2.1-.4.4-.6.3-.2.6-.5.9-.8l.9-.9c.3-.3.4-.8.5-1.2 0-.5 0-1-.2-1.4-.1-.4-.3-.8-.6-1.1s-.7-.6-1.2-.7c-.5-.2-1-.3-1.6-.3-.8 0-1.4.1-1.9.4s-1 .6-1.3 1c-.3.4-.5.8-.7 1.2-.1.4-.2.8-.2 1 0 .3.1.6.3.7.2.2.4.2.6.2.4.1.6 0 .8-.1.2-.1.3-.3.3-.6 0-.2 0-.3.1-.6.1-.2.2-.4.4-.6.1-.2.3-.4.6-.5.2-.1.5-.2.8-.2.6 0 1 .1 1.4.4.3.3.5.6.5 1.1 0 .2-.1.4-.2.6-.2.2-.4.3-.6.5-.2.2-.4.4-.6.5l-.6.6c-.2.1-.4.3-.5.6-.2.2-.2.4-.2.7v.7c0 .2.1.4.3.5.1.2.4.3.6.3.3 0 .5-.1.7-.3.2-.2.3-.4.2-.6l.1-.5z" fill="#4a5fa4" data-follow-fill="#4a5fa4"/></svg>