<svg class="icon" viewBox="0 0 1025 1024" xmlns="http://www.w3.org/2000/svg"><path d="M1003.527 885.304 898.972 781.091c-12.642-12.643-29.043-19.135-46.47-20.501 60.82-79.613 97.04-178.701 97.04-286.674C949.541 212.186 737.012 0 474.941 0 212.527 0 0 212.186 0 474.258c0 261.73 212.528 474.258 474.941 474.258 107.29 0 206.036-35.877 285.649-96.013 1.366 17.084 7.858 33.485 20.5 46.127l104.556 104.214c30.068 29.726 80.638 28.018 113.098-4.442 32.801-32.46 34.51-83.03 4.783-113.098zM474.6 834.735c-198.86 0-359.794-161.275-359.794-360.135 0-198.86 161.275-360.136 359.794-360.136 198.86 0 360.135 161.275 360.135 360.136 0 198.86-161.275 360.135-360.135 360.135z"/></svg>